<svg version="1.1" id="Layer_1" xmlns="http://www.w3.org/2000/svg" xmlns:xlink="http://www.w3.org/1999/xlink" x="0px" y="0px"
	 width="100%" viewBox="0 0 500 500" enable-background="new 0 0 500 500" xml:space="preserve">
<path fill="#FFFFFF" opacity="1.000000" stroke="none" 
	d="
M285.000000,501.000000 
	C190.000015,501.000000 95.500046,501.000000 1.000051,501.000000 
	C1.000034,334.333405 1.000034,167.666794 1.000017,1.000140 
	C167.666565,1.000093 334.333130,1.000093 500.999756,1.000047 
	C500.999847,167.666519 500.999847,334.333038 500.999939,500.999786 
	C429.166656,501.000000 357.333344,501.000000 285.000000,501.000000 
M177.500076,74.830170 
	C143.402283,74.830170 109.304482,74.830170 74.823112,74.830170 
	C74.823112,77.430420 74.823112,79.400360 74.823112,81.370293 
	C74.823105,155.531509 74.875908,229.692841 74.700981,303.853668 
	C74.689651,308.656158 76.254288,311.882050 79.500183,315.112732 
	C115.998093,351.439789 152.373505,387.889984 188.910522,424.177490 
	C190.552155,425.807922 193.421402,427.042969 195.721710,427.047607 
	C269.216003,427.196045 342.710663,427.175385 416.205261,427.161316 
	C424.374908,427.159729 427.139343,424.321106 427.140411,416.001038 
	C427.149902,342.673096 427.174866,269.345093 427.021240,196.017487 
	C427.016113,193.558990 425.804199,190.471878 424.084595,188.741119 
	C388.142242,152.565750 351.995300,116.593681 316.049683,80.421501 
	C312.116058,76.463066 308.124054,74.694481 302.490448,74.721855 
	C261.161133,74.922630 219.830383,74.830185 177.500076,74.830170 
z"/>
<path fill="#010102" opacity="1.000000" stroke="none" 
	d="
M178.000092,74.830170 
	C219.830383,74.830185 261.161133,74.922630 302.490448,74.721855 
	C308.124054,74.694481 312.116058,76.463066 316.049683,80.421501 
	C351.995300,116.593681 388.142242,152.565750 424.084595,188.741119 
	C425.804199,190.471878 427.016113,193.558990 427.021240,196.017487 
	C427.174866,269.345093 427.149902,342.673096 427.140411,416.001038 
	C427.139343,424.321106 424.374908,427.159729 416.205261,427.161316 
	C342.710663,427.175385 269.216003,427.196045 195.721710,427.047607 
	C193.421402,427.042969 190.552155,425.807922 188.910522,424.177490 
	C152.373505,387.889984 115.998093,351.439789 79.500183,315.112732 
	C76.254288,311.882050 74.689651,308.656158 74.700981,303.853668 
	C74.875908,229.692841 74.823105,155.531509 74.823112,81.370293 
	C74.823112,79.400360 74.823112,77.430420 74.823112,74.830170 
	C109.304482,74.830170 143.402283,74.830170 178.000092,74.830170 
M374.981232,145.518875 
	C353.891602,124.437141 332.865723,103.290558 311.606873,82.380898 
	C309.629456,80.435989 306.177124,79.004288 303.405426,78.997284 
	C231.272766,78.814873 159.139557,78.851822 87.006432,78.861580 
	C85.774536,78.861740 84.542648,78.992500 82.597794,79.102722 
	C83.740112,80.425682 84.322052,81.183464 84.987778,81.858643 
	C120.660431,118.038086 156.309906,154.240616 192.119278,190.284286 
	C193.706345,191.881744 196.756393,192.737213 199.127090,192.741348 
	C271.759766,192.868103 344.392700,192.846268 417.025574,192.833969 
	C418.404388,192.833740 419.783173,192.671021 421.878357,192.538971 
	C406.027191,176.645767 390.754211,161.332291 374.981232,145.518875 
M188.080917,192.622894 
	C151.967529,156.063217 115.854149,119.503540 78.885887,82.078423 
	C78.885887,84.215393 78.885895,85.133942 78.885895,86.052490 
	C78.885841,158.692337 78.850334,231.332291 79.029770,303.971680 
	C79.036201,306.574921 80.531349,309.802277 82.397774,311.680115 
	C117.279190,346.774750 152.320328,381.710632 187.341949,416.665833 
	C188.193710,417.515900 189.205154,418.206024 190.264297,419.070465 
	C190.552063,418.336090 190.757721,418.056335 190.757797,417.776489 
	C190.778000,344.470367 190.797287,271.164215 190.700531,197.858261 
	C190.698456,196.281830 189.359192,194.707169 188.080917,192.622894 
M241.697159,370.793091 
	C241.697159,378.102295 241.697159,385.411499 241.697159,392.806091 
	C243.264801,392.806091 244.517487,392.806091 245.751221,392.806091 
	C245.751221,382.370636 245.751221,372.158112 245.751221,361.973633 
	C243.651505,361.973633 241.884903,361.973633 240.060760,361.973633 
	C236.203690,370.710052 232.422195,379.275299 228.315109,388.578064 
	C224.775452,380.580322 221.261765,373.428802 218.459854,366.008514 
	C216.836044,361.708099 214.490967,360.892548 210.597046,362.285187 
	C210.597046,372.476501 210.597046,382.576385 210.597046,392.849762 
	C212.089615,392.849762 213.352203,392.849762 215.081848,392.849762 
	C215.081848,384.729523 215.081848,376.747986 215.081848,368.766479 
	C218.958206,375.935089 222.009659,383.241180 225.274017,390.450897 
	C225.766953,391.539612 227.257660,392.846954 228.276672,392.838440 
	C229.294495,392.829926 230.697891,391.492432 231.238281,390.395599 
	C233.143845,386.528076 234.638535,382.459381 236.508881,378.572784 
	C237.939178,375.600647 239.701691,372.788361 241.697159,370.793091 
M394.660248,363.830200 
	C392.238739,365.272003 389.817230,366.713806 388.630066,367.420654 
	C384.861420,366.325867 381.495087,364.278748 378.514679,364.737732 
	C374.253693,365.393799 373.033966,369.659546 372.922974,373.668121 
	C372.763519,379.426636 372.882263,385.192841 372.882263,390.919006 
	C383.464813,390.919006 393.650604,390.919006 403.975372,390.919006 
	C403.975372,384.964386 404.150238,379.323456 403.927246,373.698273 
	C403.694214,367.819305 401.055267,364.954651 394.660248,363.830200 
M372.973053,305.684998 
	C372.973053,310.655182 372.973053,315.625366 372.973053,320.530304 
	C383.436127,320.530304 393.660736,320.530304 404.021332,320.530304 
	C404.021332,316.340576 404.093323,312.510986 404.006989,308.684937 
	C403.799652,299.496643 398.836395,293.811493 390.134033,292.678894 
	C381.277985,291.526276 375.754456,295.461456 372.973053,305.684998 
M339.416504,378.882111 
	C340.855469,378.882111 342.294403,378.882111 344.109131,378.882111 
	C344.109131,383.796997 344.109131,388.220825 344.109131,392.718536 
	C345.862122,392.718536 347.227142,392.718536 348.656281,392.718536 
	C348.656281,382.328796 348.656281,372.265930 348.656281,362.064667 
	C347.042877,362.064667 345.644073,362.064667 343.789368,362.064667 
	C343.789368,366.608368 343.789368,370.835175 343.789368,374.909515 
	C337.555298,374.909515 331.781250,374.909515 325.507812,374.909515 
	C325.507812,370.477325 325.507812,366.259155 325.507812,361.982300 
	C323.744904,361.982300 322.488556,361.982300 321.202271,361.982300 
	C321.202271,372.453949 321.202271,382.689423 321.202271,393.111938 
	C322.731384,392.992889 323.993469,392.894592 325.654602,392.765259 
	C325.654602,388.110107 325.654602,383.693268 325.654602,378.882111 
	C330.187012,378.882111 334.308929,378.882111 339.416504,378.882111 
M214.068268,250.338089 
	C218.675369,250.338089 223.282455,250.338089 228.364914,250.338089 
	C228.364914,255.485474 228.540222,260.120270 228.309570,264.734772 
	C228.124222,268.443207 229.740677,268.943329 233.081726,267.929199 
	C233.081726,262.101685 233.081726,256.323822 233.081726,250.205383 
	C239.220306,250.205383 244.994781,250.205383 250.748291,250.205383 
	C250.748291,248.615250 250.748291,247.377167 250.748291,245.722534 
	C244.738388,245.722534 238.993958,245.722534 232.894150,245.722534 
	C232.894150,239.530579 232.894150,233.757767 232.894150,227.778870 
	C231.238144,227.927765 229.972473,228.041580 228.207275,228.200287 
	C228.207275,234.159302 228.207275,239.888901 228.207275,246.061890 
	C221.936813,246.061890 216.179230,246.061890 210.421646,246.061890 
	C210.171478,246.545029 209.921310,247.028168 209.671143,247.511292 
	C210.845459,248.453400 212.019775,249.395508 214.068268,250.338089 
M372.790497,272.684692 
	C372.790497,276.442993 372.790497,280.201294 372.790497,284.230530 
	C381.959930,284.230530 390.563110,284.230530 399.166290,284.230530 
	C400.624603,284.230530 402.082947,284.230530 403.489990,284.230530 
	C406.089417,266.952850 401.496460,257.407501 390.151794,256.090698 
	C379.992249,254.911453 373.643799,260.651306 372.790497,272.684692 
M374.796112,333.895905 
	C379.793671,333.897949 384.791382,333.872742 389.788696,333.908508 
	C396.970764,333.959961 400.818481,337.253082 400.760376,343.237671 
	C400.703827,349.060181 397.036713,352.311279 390.119751,352.443207 
	C384.483704,352.550690 378.843903,352.465057 372.996033,352.465057 
	C372.996033,354.150909 372.996033,355.402222 372.996033,356.693726 
	C373.628265,356.812988 374.107697,356.980530 374.587708,356.982208 
	C380.251495,357.001923 385.916626,357.074127 391.578888,356.979462 
	C399.391083,356.848846 403.953186,352.107269 404.257202,343.979889 
	C404.575989,335.458893 400.368622,329.788696 392.736664,329.321747 
	C386.293854,328.927490 379.807739,329.240540 372.518188,329.240540 
	C373.056610,331.097076 373.456024,332.474274 374.796112,333.895905 
M252.781708,389.494598 
	C252.427109,390.537628 252.072510,391.580658 251.684204,392.722809 
	C258.680542,394.438324 256.797729,387.546478 259.982086,384.973511 
	C263.448059,384.973511 267.466858,385.306580 271.403595,384.880920 
	C275.431152,384.445404 277.579803,385.830383 278.438721,389.709869 
	C279.142548,392.888763 280.957520,394.051727 284.226837,392.257507 
	C280.474182,383.026520 276.616150,373.862335 273.060181,364.582397 
	C272.047699,361.940186 270.431458,361.687439 268.104614,361.736206 
	C265.699738,361.786652 263.854950,361.748566 262.751007,364.743988 
	C259.771210,372.829498 256.303589,380.735229 252.781708,389.494598 
M298.303253,372.485352 
	C298.303253,379.249969 298.303253,386.014587 298.303253,392.799713 
	C300.108276,392.799713 301.365692,392.799713 303.105011,392.799713 
	C303.105011,383.549530 303.105011,374.514130 303.105011,365.531952 
	C314.852112,364.763245 314.852112,364.763245 314.908173,361.768341 
	C306.123322,361.768341 297.339508,361.697021 288.560333,361.865723 
	C287.552643,361.885101 286.570679,363.244293 285.576813,363.982300 
	C285.853424,364.436646 286.130066,364.890991 286.406677,365.345337 
	C290.188232,365.345337 293.969757,365.345337 298.303253,365.345337 
	C298.303253,367.573517 298.303253,369.525909 298.303253,372.485352 
M375.091858,245.922073 
	C374.193115,247.516434 373.294373,249.110779 372.395630,250.705139 
	C372.832581,250.988434 373.269501,251.271744 373.706451,251.555054 
	C378.363098,248.684631 383.087158,245.916885 387.657532,242.915131 
	C392.301025,239.865372 396.935364,237.042572 402.853943,238.089966 
	C403.117645,238.136627 403.439087,237.857162 403.780334,237.709381 
	C403.780334,236.478958 403.780334,235.242035 403.780334,233.667770 
	C390.731232,235.581848 383.622314,224.101196 371.727142,220.123123 
	C375.451843,230.011810 385.917755,230.046890 391.391602,236.303726 
	C386.039795,239.467911 380.902924,242.505020 375.091858,245.922073 
z"/>
<path fill="#0281D7" opacity="1.000000" stroke="none" 
	d="
M375.231232,145.768845 
	C390.754211,161.332291 406.027191,176.645767 421.878357,192.538971 
	C419.783173,192.671021 418.404388,192.833740 417.025574,192.833969 
	C344.392700,192.846268 271.759766,192.868103 199.127090,192.741348 
	C196.756393,192.737213 193.706345,191.881744 192.119278,190.284286 
	C156.309906,154.240616 120.660431,118.038086 84.987778,81.858643 
	C84.322052,81.183464 83.740112,80.425682 82.597794,79.102722 
	C84.542648,78.992500 85.774536,78.861740 87.006432,78.861580 
	C159.139557,78.851822 231.272766,78.814873 303.405426,78.997284 
	C306.177124,79.004288 309.629456,80.435989 311.606873,82.380898 
	C332.865723,103.290558 353.891602,124.437141 375.231232,145.768845 
z"/>
<path fill="#B4E9FE" opacity="1.000000" stroke="none" 
	d="
M188.362320,192.877289 
	C189.359192,194.707169 190.698456,196.281830 190.700531,197.858261 
	C190.797287,271.164215 190.778000,344.470367 190.757797,417.776489 
	C190.757721,418.056335 190.552063,418.336090 190.264297,419.070465 
	C189.205154,418.206024 188.193710,417.515900 187.341949,416.665833 
	C152.320328,381.710632 117.279190,346.774750 82.397774,311.680115 
	C80.531349,309.802277 79.036201,306.574921 79.029770,303.971680 
	C78.850334,231.332291 78.885841,158.692337 78.885895,86.052490 
	C78.885895,85.133942 78.885887,84.215393 78.885887,82.078423 
	C115.854149,119.503540 151.967529,156.063217 188.362320,192.877289 
z"/>
<path fill="#EFE9E9" opacity="1.000000" stroke="none" 
	d="
M241.506790,370.349030 
	C239.701691,372.788361 237.939178,375.600647 236.508881,378.572784 
	C234.638535,382.459381 233.143845,386.528076 231.238281,390.395599 
	C230.697891,391.492432 229.294495,392.829926 228.276672,392.838440 
	C227.257660,392.846954 225.766953,391.539612 225.274017,390.450897 
	C222.009659,383.241180 218.958206,375.935089 215.081848,368.766479 
	C215.081848,376.747986 215.081848,384.729523 215.081848,392.849762 
	C213.352203,392.849762 212.089615,392.849762 210.597046,392.849762 
	C210.597046,382.576385 210.597046,372.476501 210.597046,362.285187 
	C214.490967,360.892548 216.836044,361.708099 218.459854,366.008514 
	C221.261765,373.428802 224.775452,380.580322 228.315109,388.578064 
	C232.422195,379.275299 236.203690,370.710052 240.060760,361.973633 
	C241.884903,361.973633 243.651505,361.973633 245.751221,361.973633 
	C245.751221,372.158112 245.751221,382.370636 245.751221,392.806091 
	C244.517487,392.806091 243.264801,392.806091 241.697159,392.806091 
	C241.697159,385.411499 241.697159,378.102295 241.506790,370.349030 
z"/>
<path fill="#F1EBEB" opacity="1.000000" stroke="none" 
	d="
M395.063965,363.821594 
	C401.055267,364.954651 403.694214,367.819305 403.927246,373.698273 
	C404.150238,379.323456 403.975372,384.964386 403.975372,390.919006 
	C393.650604,390.919006 383.464813,390.919006 372.882263,390.919006 
	C372.882263,385.192841 372.763519,379.426636 372.922974,373.668121 
	C373.033966,369.659546 374.253693,365.393799 378.514679,364.737732 
	C381.495087,364.278748 384.861420,366.325867 388.630066,367.420654 
	C389.817230,366.713806 392.238739,365.272003 395.063965,363.821594 
M389.706146,385.265991 
	C393.120819,385.981598 396.535492,386.697205 400.311157,387.488495 
	C400.311157,382.246490 400.492676,378.125763 400.254639,374.029480 
	C400.058746,370.658508 398.162811,368.150116 394.578339,368.364044 
	C391.241364,368.563263 389.860352,371.128265 389.791840,374.327209 
	C389.720551,377.655945 389.713593,380.986053 389.706146,385.265991 
M384.960815,370.811951 
	C380.338226,367.566010 377.272522,368.453094 376.546631,373.773926 
	C375.977325,377.947174 376.432434,382.260223 376.432434,386.552216 
	C379.812225,386.552216 382.890320,386.552216 386.726257,386.552216 
	C386.259735,381.337799 385.822113,376.446533 384.960815,370.811951 
z"/>
<path fill="#ECE7E7" opacity="1.000000" stroke="none" 
	d="
M373.011780,305.267456 
	C375.754456,295.461456 381.277985,291.526276 390.134033,292.678894 
	C398.836395,293.811493 403.799652,299.496643 404.006989,308.684937 
	C404.093323,312.510986 404.021332,316.340576 404.021332,320.530304 
	C393.660736,320.530304 383.436127,320.530304 372.973053,320.530304 
	C372.973053,315.625366 372.973053,310.655182 373.011780,305.267456 
M379.758606,316.146393 
	C386.537140,316.146393 393.315643,316.146393 400.317078,316.146393 
	C400.317078,313.298065 400.362488,310.992371 400.307983,308.689056 
	C400.180145,303.287506 397.727020,299.544067 392.468140,297.811188 
	C387.332642,296.118988 381.172180,296.793274 379.384583,300.792145 
	C377.407440,305.215210 377.397186,310.522186 376.652161,315.462555 
	C376.634705,315.578339 378.064087,315.912354 379.758606,316.146393 
z"/>
<path fill="#E5DFDF" opacity="1.000000" stroke="none" 
	d="
M338.923676,378.882111 
	C334.308929,378.882111 330.187012,378.882111 325.654602,378.882111 
	C325.654602,383.693268 325.654602,388.110107 325.654602,392.765259 
	C323.993469,392.894592 322.731384,392.992889 321.202271,393.111938 
	C321.202271,382.689423 321.202271,372.453949 321.202271,361.982300 
	C322.488556,361.982300 323.744904,361.982300 325.507812,361.982300 
	C325.507812,366.259155 325.507812,370.477325 325.507812,374.909515 
	C331.781250,374.909515 337.555298,374.909515 343.789368,374.909515 
	C343.789368,370.835175 343.789368,366.608368 343.789368,362.064667 
	C345.644073,362.064667 347.042877,362.064667 348.656281,362.064667 
	C348.656281,372.265930 348.656281,382.328796 348.656281,392.718536 
	C347.227142,392.718536 345.862122,392.718536 344.109131,392.718536 
	C344.109131,388.220825 344.109131,383.796997 344.109131,378.882111 
	C342.294403,378.882111 340.855469,378.882111 338.923676,378.882111 
z"/>
<path fill="#F1F1F1" opacity="1.000000" stroke="none" 
	d="
M213.631180,250.337845 
	C212.019775,249.395508 210.845459,248.453400 209.671143,247.511292 
	C209.921310,247.028168 210.171478,246.545029 210.421646,246.061890 
	C216.179230,246.061890 221.936813,246.061890 228.207275,246.061890 
	C228.207275,239.888901 228.207275,234.159302 228.207275,228.200287 
	C229.972473,228.041580 231.238144,227.927765 232.894150,227.778870 
	C232.894150,233.757767 232.894150,239.530579 232.894150,245.722534 
	C238.993958,245.722534 244.738388,245.722534 250.748291,245.722534 
	C250.748291,247.377167 250.748291,248.615250 250.748291,250.205383 
	C244.994781,250.205383 239.220306,250.205383 233.081726,250.205383 
	C233.081726,256.323822 233.081726,262.101685 233.081726,267.929199 
	C229.740677,268.943329 228.124222,268.443207 228.309570,264.734772 
	C228.540222,260.120270 228.364914,255.485474 228.364914,250.338089 
	C223.282455,250.338089 218.675369,250.338089 213.631180,250.337845 
z"/>
<path fill="#F4EEEE" opacity="1.000000" stroke="none" 
	d="
M372.810303,272.218262 
	C373.643799,260.651306 379.992249,254.911453 390.151794,256.090698 
	C401.496460,257.407501 406.089417,266.952850 403.489990,284.230530 
	C402.082947,284.230530 400.624603,284.230530 399.166290,284.230530 
	C390.563110,284.230530 381.959930,284.230530 372.790497,284.230530 
	C372.790497,280.201294 372.790497,276.442993 372.810303,272.218262 
M396.798981,263.655548 
	C391.953125,259.949860 386.527313,259.183319 381.431458,262.334839 
	C374.950439,266.343018 376.257751,273.097992 376.442078,279.582214 
	C384.508606,279.582214 392.245605,279.582214 400.230408,279.582214 
	C400.316650,274.083038 401.437622,268.696960 396.798981,263.655548 
z"/>
<path fill="#EEE9E9" opacity="1.000000" stroke="none" 
	d="
M374.325806,333.873718 
	C373.456024,332.474274 373.056610,331.097076 372.518188,329.240540 
	C379.807739,329.240540 386.293854,328.927490 392.736664,329.321747 
	C400.368622,329.788696 404.575989,335.458893 404.257202,343.979889 
	C403.953186,352.107269 399.391083,356.848846 391.578888,356.979462 
	C385.916626,357.074127 380.251495,357.001923 374.587708,356.982208 
	C374.107697,356.980530 373.628265,356.812988 372.996033,356.693726 
	C372.996033,355.402222 372.996033,354.150909 372.996033,352.465057 
	C378.843903,352.465057 384.483704,352.550690 390.119751,352.443207 
	C397.036713,352.311279 400.703827,349.060181 400.760376,343.237671 
	C400.818481,337.253082 396.970764,333.959961 389.788696,333.908508 
	C384.791382,333.872742 379.793671,333.897949 374.325806,333.873718 
z"/>
<path fill="#F2EDED" opacity="1.000000" stroke="none" 
	d="
M252.905609,389.103455 
	C256.303589,380.735229 259.771210,372.829498 262.751007,364.743988 
	C263.854950,361.748566 265.699738,361.786652 268.104614,361.736206 
	C270.431458,361.687439 272.047699,361.940186 273.060181,364.582397 
	C276.616150,373.862335 280.474182,383.026520 284.226837,392.257507 
	C280.957520,394.051727 279.142548,392.888763 278.438721,389.709869 
	C277.579803,385.830383 275.431152,384.445404 271.403595,384.880920 
	C267.466858,385.306580 263.448059,384.973511 259.982086,384.973511 
	C256.797729,387.546478 258.680542,394.438324 251.684204,392.722809 
	C252.072510,391.580658 252.427109,390.537628 252.905609,389.103455 
M274.894440,380.762512 
	C272.773132,375.344055 270.651794,369.925598 268.530487,364.507141 
	C268.075104,364.584869 267.619690,364.662567 267.164307,364.740265 
	C265.004608,370.181488 262.844910,375.622711 260.500183,381.530121 
	C265.687653,381.530121 270.124207,381.530121 274.894440,380.762512 
z"/>
<path fill="#EEE8E8" opacity="1.000000" stroke="none" 
	d="
M298.303253,371.981842 
	C298.303253,369.525909 298.303253,367.573517 298.303253,365.345337 
	C293.969757,365.345337 290.188232,365.345337 286.406677,365.345337 
	C286.130066,364.890991 285.853424,364.436646 285.576813,363.982300 
	C286.570679,363.244293 287.552643,361.885101 288.560333,361.865723 
	C297.339508,361.697021 306.123322,361.768341 314.908173,361.768341 
	C314.852112,364.763245 314.852112,364.763245 303.105011,365.531952 
	C303.105011,374.514130 303.105011,383.549530 303.105011,392.799713 
	C301.365692,392.799713 300.108276,392.799713 298.303253,392.799713 
	C298.303253,386.014587 298.303253,379.249969 298.303253,371.981842 
z"/>
<path fill="#F1EBEB" opacity="1.000000" stroke="none" 
	d="
M375.428955,245.732101 
	C380.902924,242.505020 386.039795,239.467911 391.391602,236.303726 
	C385.917755,230.046890 375.451843,230.011810 371.727142,220.123123 
	C383.622314,224.101196 390.731232,235.581848 403.780334,233.667770 
	C403.780334,235.242035 403.780334,236.478958 403.780334,237.709381 
	C403.439087,237.857162 403.117645,238.136627 402.853943,238.089966 
	C396.935364,237.042572 392.301025,239.865372 387.657532,242.915131 
	C383.087158,245.916885 378.363098,248.684631 373.706451,251.555054 
	C373.269501,251.271744 372.832581,250.988434 372.395630,250.705139 
	C373.294373,249.110779 374.193115,247.516434 375.428955,245.732101 
z"/>
<path fill="#0B0B0B" opacity="1.000000" stroke="none" 
	d="
M389.692322,384.790771 
	C389.713593,380.986053 389.720551,377.655945 389.791840,374.327209 
	C389.860352,371.128265 391.241364,368.563263 394.578339,368.364044 
	C398.162811,368.150116 400.058746,370.658508 400.254639,374.029480 
	C400.492676,378.125763 400.311157,382.246490 400.311157,387.488495 
	C396.535492,386.697205 393.120819,385.981598 389.692322,384.790771 
z"/>
<path fill="#090909" opacity="1.000000" stroke="none" 
	d="
M385.172668,371.183594 
	C385.822113,376.446533 386.259735,381.337799 386.726257,386.552216 
	C382.890320,386.552216 379.812225,386.552216 376.432434,386.552216 
	C376.432434,382.260223 375.977325,377.947174 376.546631,373.773926 
	C377.272522,368.453094 380.338226,367.566010 385.172668,371.183594 
z"/>
<path fill="#040404" opacity="1.000000" stroke="none" 
	d="
M379.288635,316.145508 
	C378.064087,315.912354 376.634705,315.578339 376.652161,315.462555 
	C377.397186,310.522186 377.407440,305.215210 379.384583,300.792145 
	C381.172180,296.793274 387.332642,296.118988 392.468140,297.811188 
	C397.727020,299.544067 400.180145,303.287506 400.307983,308.689056 
	C400.362488,310.992371 400.317078,313.298065 400.317078,316.146393 
	C393.315643,316.146393 386.537140,316.146393 379.288635,316.145508 
z"/>
<path fill="#070707" opacity="1.000000" stroke="none" 
	d="
M397.079285,263.934082 
	C401.437622,268.696960 400.316650,274.083038 400.230408,279.582214 
	C392.245605,279.582214 384.508606,279.582214 376.442078,279.582214 
	C376.257751,273.097992 374.950439,266.343018 381.431458,262.334839 
	C386.527313,259.183319 391.953125,259.949860 397.079285,263.934082 
z"/>
<path fill="#131212" opacity="1.000000" stroke="none" 
	d="
M274.727600,381.146301 
	C270.124207,381.530121 265.687653,381.530121 260.500183,381.530121 
	C262.844910,375.622711 265.004608,370.181488 267.164307,364.740265 
	C267.619690,364.662567 268.075104,364.584869 268.530487,364.507141 
	C270.651794,369.925598 272.773132,375.344055 274.727600,381.146301 
z"/>
</svg>